<svg width="286" height="120" viewBox="0 0 286 120" fill="none" xmlns="http://www.w3.org/2000/svg">
<path d="M37.6176 54.3444H34.1041L28.5385 66.957H32.1722L33.1732 64.5045H38.4985L39.4995 66.957H43.2032L37.6176 54.3444ZM37.4575 61.8719H34.2042L35.8358 57.8379L37.4575 61.8719ZM56.2162 54.3444H52.7227V61.0611L47.1471 54.3444H44.2142V66.957H47.7077V60.2403L53.2833 66.957H56.2162V54.3444ZM57.5475 57.1772H61.4314V66.957H64.995V57.1772H68.8488V54.3444H57.5475V57.1772ZM15.7758 54.3444V61.3314C15.7758 63.2132 16.2963 64.6647 17.3373 65.6857C18.3717 66.7001 19.8298 67.2072 21.7117 67.2072C23.5802 67.2072 25.035 66.7001 26.0761 65.6857C27.1171 64.6647 27.6376 63.2132 27.6376 61.3314V54.3444H24.1141V61.2313C24.1141 63.2466 23.3233 64.2543 21.7417 64.2543C20.1468 64.2543 19.3493 63.2466 19.3493 61.2313V54.3444H15.7758ZM13.1031 57.2773C12.4958 56.283 11.6617 55.5022 10.6006 54.935C9.53954 54.3744 8.33833 54.0941 6.99699 54.0941C5.669 54.0941 4.47447 54.3744 3.41341 54.935C2.34568 55.5022 1.50817 56.283 0.900901 57.2773C0.3003 58.2783 0 59.4028 0 60.6507C0 61.7451 0.236901 62.7461 0.710708 63.6537C1.17784 64.5746 1.8385 65.332 2.69269 65.9259C3.54688 66.5332 4.52119 66.9236 5.61561 67.0971C6.32299 67.8445 6.96363 68.4251 7.53754 68.8389C8.10477 69.2526 8.66867 69.5496 9.22923 69.7297C9.80314 69.9099 10.4338 70 11.1211 70C11.8418 70 12.5092 69.8665 13.1231 69.5996C13.7237 69.326 14.2376 68.9323 14.6647 68.4184L13.1131 66.5766C12.5459 67.1638 11.9052 67.4575 11.1912 67.4575C10.9176 67.4575 10.664 67.4041 10.4304 67.2973C10.2035 67.1905 9.96997 67.0037 9.72973 66.7368C11.0377 66.2763 12.0787 65.4988 12.8528 64.4044C13.627 63.3233 14.014 62.0721 14.014 60.6507C14.014 59.4028 13.7104 58.2783 13.1031 57.2773ZM9.94995 58.7688C10.2502 59.3093 10.4004 59.9366 10.4004 60.6507C10.4004 61.358 10.2502 61.9853 9.94995 62.5326C9.65632 63.0798 9.24925 63.5035 8.72873 63.8038C8.21488 64.1041 7.63763 64.2543 6.99699 64.2543C6.36303 64.2543 5.78912 64.1041 5.27528 63.8038C4.76143 63.5035 4.35101 63.0798 4.04404 62.5326C3.74374 61.9853 3.59359 61.358 3.59359 60.6507C3.59359 59.9366 3.74374 59.3093 4.04404 58.7688C4.35101 58.2216 4.76143 57.7978 5.27528 57.4975C5.78912 57.1972 6.36303 57.0471 6.99699 57.0471C7.63763 57.0471 8.21488 57.1972 8.72873 57.4975C9.24925 57.7978 9.65632 58.2216 9.94995 58.7688ZM167.558 54.3444H166.647V66.957H174.825V66.1261H167.558V54.3444ZM161.542 55.1852C160.781 54.6246 159.716 54.3444 158.348 54.3444H153.093V66.957H158.709C160.25 66.957 161.411 66.67 162.192 66.0961C162.966 65.5155 163.353 64.6914 163.353 63.6236C163.353 62.7628 163.116 62.0621 162.643 61.5215C162.169 60.9743 161.485 60.6173 160.591 60.4505C161.231 60.2369 161.742 59.8832 162.122 59.3894C162.503 58.8956 162.693 58.2883 162.693 57.5676C162.693 56.5399 162.309 55.7458 161.542 55.1852ZM154.004 55.1452H158.318C159.419 55.1452 160.27 55.3554 160.871 55.7758C161.458 56.2029 161.752 56.8235 161.752 57.6377C161.752 58.4718 161.458 59.0991 160.871 59.5195C160.27 59.9466 159.419 60.1602 158.318 60.1602H154.004V55.1452ZM158.709 66.1662H154.004V60.961H158.709C159.937 60.961 160.864 61.1712 161.491 61.5916C162.125 62.0054 162.442 62.6593 162.442 63.5536C162.442 64.4411 162.125 65.0984 161.491 65.5255C160.864 65.9526 159.937 66.1662 158.709 66.1662ZM189.099 60.6507C189.099 59.4361 188.812 58.3417 188.238 57.3674C187.664 56.3997 186.88 55.6357 185.886 55.0751C184.892 54.5279 183.774 54.2543 182.533 54.2543C181.298 54.2543 180.18 54.5312 179.179 55.0851C178.185 55.6523 177.404 56.4231 176.837 57.3974C176.263 58.3651 175.976 59.4495 175.976 60.6507C175.976 61.8519 176.263 62.9396 176.837 63.9139C177.404 64.8882 178.185 65.6523 179.179 66.2062C180.18 66.7668 181.298 67.0471 182.533 67.0471C183.774 67.0471 184.892 66.7701 185.886 66.2162C186.88 65.669 187.664 64.9083 188.238 63.934C188.812 62.9596 189.099 61.8652 189.099 60.6507ZM187.417 57.8178C187.911 58.6587 188.158 59.603 188.158 60.6507C188.158 61.6917 187.911 62.6393 187.417 63.4935C186.924 64.3344 186.253 64.995 185.405 65.4755C184.545 65.956 183.587 66.1962 182.533 66.1962C181.478 66.1962 180.521 65.956 179.66 65.4755C178.799 64.995 178.125 64.3344 177.638 63.4935C177.144 62.6393 176.897 61.6917 176.897 60.6507C176.897 59.603 177.144 58.6587 177.638 57.8178C178.125 56.9636 178.799 56.2963 179.66 55.8158C180.521 55.3354 181.478 55.0951 182.533 55.0951C183.587 55.0951 184.545 55.3354 185.405 55.8158C186.253 56.2963 186.924 56.9636 187.417 57.8178ZM191.992 60.6507C191.992 59.603 192.239 58.6587 192.733 57.8178C193.22 56.9636 193.897 56.2963 194.765 55.8158C195.632 55.3354 196.593 55.0951 197.648 55.0951C199.216 55.0951 200.507 55.5956 201.522 56.5966L202.102 56.006C201.562 55.4321 200.908 54.995 200.14 54.6947C199.366 54.4011 198.522 54.2543 197.608 54.2543C196.373 54.2543 195.259 54.5279 194.264 55.0751C193.277 55.6357 192.499 56.3997 191.932 57.3674C191.358 58.3417 191.071 59.4361 191.071 60.6507C191.071 61.8652 191.358 62.9596 191.932 63.934C192.499 64.9083 193.277 65.669 194.264 66.2162C195.259 66.7701 196.373 67.0471 197.608 67.0471C198.515 67.0471 199.356 66.8969 200.13 66.5966C200.904 66.2963 201.562 65.8592 202.102 65.2853L201.522 64.6847C200.5 65.6924 199.209 66.1962 197.648 66.1962C196.593 66.1962 195.632 65.956 194.765 65.4755C193.897 64.995 193.22 64.3344 192.733 63.4935C192.239 62.6393 191.992 61.6917 191.992 60.6507ZM81.9319 61.3314V54.3444H78.4084V61.2313C78.4084 63.2466 77.6176 64.2543 76.036 64.2543C74.4411 64.2543 73.6436 63.2466 73.6436 61.2313V54.3444H70.0701V61.3314C70.0701 63.2132 70.5906 64.6647 71.6316 65.6857C72.666 66.7001 74.1241 67.2072 76.006 67.2072C77.8745 67.2072 79.3293 66.7001 80.3704 65.6857C81.4114 64.6647 81.9319 63.2132 81.9319 61.3314ZM87.2773 54.3444H84.3443V66.957H87.6376V60.4505L90.8709 65.7157H92.4524L95.6957 60.2703L95.7357 66.957H99.009L98.969 54.3444H96.046L91.7117 61.6216L87.2773 54.3444ZM285.425 55.3854C284.932 55.0384 284.351 54.7648 283.684 54.5646C283.01 54.3577 282.322 54.2543 281.622 54.2543C280.627 54.2543 279.796 54.4044 279.129 54.7047C278.462 55.005 277.968 55.4121 277.648 55.926C277.321 56.4331 277.157 56.9937 277.157 57.6076C277.157 58.3617 277.354 58.9656 277.748 59.4194C278.135 59.8665 278.609 60.2002 279.169 60.4204C279.723 60.634 280.464 60.8542 281.391 61.0811C282.206 61.2746 282.856 61.4615 283.343 61.6417C283.824 61.8218 284.224 62.0788 284.545 62.4124C284.865 62.7528 285.025 63.2066 285.025 63.7738C285.025 64.5012 284.721 65.0918 284.114 65.5456C283.5 66.006 282.593 66.2363 281.391 66.2363C280.564 66.2363 279.773 66.0894 279.019 65.7958C278.272 65.5022 277.678 65.1218 277.237 64.6547L276.807 65.3354C277.281 65.8425 277.935 66.2529 278.769 66.5666C279.603 66.8869 280.484 67.0471 281.411 67.0471C282.406 67.0471 283.243 66.8969 283.924 66.5966C284.611 66.2963 285.118 65.8959 285.445 65.3954C285.786 64.8882 285.956 64.3277 285.956 63.7137C285.956 62.9663 285.759 62.3757 285.365 61.942C284.978 61.5015 284.504 61.1745 283.944 60.961C283.397 60.7408 282.663 60.5172 281.742 60.2903C280.908 60.0834 280.25 59.8932 279.77 59.7197C279.289 59.5329 278.886 59.2726 278.559 58.939C278.238 58.5986 278.078 58.1482 278.078 57.5876C278.078 56.8402 278.378 56.2329 278.979 55.7658C279.58 55.2986 280.46 55.0651 281.622 55.0651C282.216 55.0651 282.813 55.1552 283.413 55.3354C284.021 55.5155 284.578 55.7791 285.085 56.1262L285.425 55.3854ZM241.011 54.3444H240.1V60.1502H231.662V54.3444H230.751V66.957H231.662V60.961H240.1V66.957H241.011V54.3444ZM215.085 54.3444H213.974L206.096 62.4525V54.3444H205.185V66.957H206.096V63.6437L208.929 60.7408L214.354 66.957H215.465L209.54 60.0801L215.085 54.3444ZM220.33 55.8158C221.198 55.3354 222.159 55.0951 223.213 55.0951C224.781 55.0951 226.073 55.5956 227.087 56.5966L227.668 56.006C227.127 55.4321 226.473 54.995 225.706 54.6947C224.932 54.4011 224.087 54.2543 223.173 54.2543C221.939 54.2543 220.824 54.5279 219.83 55.0751C218.842 55.6357 218.065 56.3997 217.497 57.3674C216.924 58.3417 216.637 59.4361 216.637 60.6507C216.637 61.8652 216.924 62.9596 217.497 63.934C218.065 64.9083 218.842 65.669 219.83 66.2162C220.824 66.7701 221.939 67.0471 223.173 67.0471C224.081 67.0471 224.922 66.8969 225.696 66.5966C226.47 66.2963 227.127 65.8592 227.668 65.2853L227.087 64.6847C226.066 65.6924 224.775 66.1962 223.213 66.1962C222.159 66.1962 221.198 65.956 220.33 65.4755C219.463 64.995 218.785 64.3344 218.298 63.4935C217.804 62.6393 217.558 61.6917 217.558 60.6507C217.558 59.603 217.804 58.6587 218.298 57.8178C218.785 56.9636 219.463 56.2963 220.33 55.8158ZM273.694 54.3444H272.783V65.3053L264.204 54.3444H263.433V66.957H264.344V56.006L272.943 66.957H273.694V54.3444ZM250.02 54.3444H249.109L243.303 66.957H244.294L245.896 63.4134H253.213L254.835 66.957H255.826L250.02 54.3444ZM249.56 55.3554L252.873 62.6327H246.256L249.56 55.3554ZM259.029 54.3444H258.118V66.957H259.029V54.3444Z" fill="black" fill-opacity="0.988235"/>
<path d="M122.172 68.9389L113.123 59.8899L122.172 50.8408V29.2292H45.5457V50.4204H55.5557V39.2392H112.162V80.7608H55.5557V70.4404H45.5457V90.7708H112.162V120H122.172V68.9389ZM140.841 0H130.831V51.1912L122.132 59.8899L130.831 68.5886V90.7708H207.458V70.4404H197.448V80.7608H140.841V39.2392H197.448V50.4204H207.458V29.2292H140.841V0Z" fill="#7EC7BA" fill-opacity="0.988235"/>
</svg>
